<svg xmlns="http://www.w3.org/2000/svg" version="1.1" xmlns:xlink="http://www.w3.org/1999/xlink" xmlns:svgjs="http://svgjs.dev/svgjs" width="1500" height="939" viewBox="0 0 1500 939"><g transform="matrix(1,0,0,1,-0.9090909090909918,-1.5145161290323017)"><svg viewBox="0 0 396 248" data-background-color="#ffffff" preserveAspectRatio="xMidYMid meet" height="939" width="1500" xmlns="http://www.w3.org/2000/svg" xmlns:xlink="http://www.w3.org/1999/xlink"><g id="tight-bounds" transform="matrix(1,0,0,1,0.2400000000000091,0.4000000000000057)"><svg viewBox="0 0 395.52 247.2" height="247.2" width="395.52"><g><svg></svg></g><g><svg viewBox="0 0 395.52 247.2" height="247.2" width="395.52"><g transform="matrix(1,0,0,1,75.54432,75.59028567232792)"><svg viewBox="0 0 244.43135999999998 96.01942865534414" height="96.01942865534414" width="244.43135999999998"><g><svg viewBox="0 0 244.43135999999998 96.01942865534414" height="96.01942865534414" width="244.43135999999998"><g><svg viewBox="0 0 244.43135999999998 96.01942865534414" height="96.01942865534414" width="244.43135999999998"><g><svg viewBox="0 0 244.43135999999998 96.01942865534414" height="96.01942865534414" width="244.43135999999998"><g id="textblocktransform"><svg viewBox="0 0 244.43135999999998 96.01942865534414" height="96.01942865534414" width="244.43135999999998" id="textblock"><g><svg viewBox="0 0 244.43135999999998 96.01942865534414" height="96.01942865534414" width="244.43135999999998"><g transform="matrix(1,0,0,1,0,0)"><svg width="244.43135999999998" viewBox="0.9916666666699999 -38.6 98.88913772962199 38.85" height="96.01942865534414" data-palette-color="#fff"><path d="M9.5 0L9.5 0Q6 0 3.73-1.33 1.45-2.65 1-5.25L1-5.25Q0.95-5.65 1.2-6.23 1.45-6.8 2.1-7L2.1-7Q2.65-7.15 3.15-6.93 3.65-6.7 3.8-6.1L3.8-6.1Q4.2-4.45 5.55-3.6 6.9-2.75 9.5-2.75L9.5-2.75Q12.55-2.75 14.73-3.78 16.9-4.8 18.1-6.73 19.3-8.65 19.3-11.25L19.3-11.25Q19.3-12.7 18.7-14.03 18.1-15.35 16.7-16.8 15.3-18.25 12.95-19.9L12.95-19.9Q11.4-21.05 10-22.1 8.6-23.15 7.58-24.23 6.55-25.3 5.95-26.55 5.35-27.8 5.35-29.35L5.35-29.35Q5.35-33.65 8.75-36.13 12.15-38.6 18.05-38.6L18.05-38.6Q21.85-38.6 23.78-37.43 25.7-36.25 26.2-33.4L26.2-33.4Q26.3-32.95 26.2-32.43 26.1-31.9 25.4-31.7L25.4-31.7Q24.9-31.6 24.2-31.75 23.5-31.9 23.4-32.5L23.4-32.5Q23.15-34.15 22.13-35.02 21.1-35.9 18-35.9L18-35.9Q13.5-35.9 10.88-34.18 8.25-32.45 8.25-29.5L8.25-29.5Q8.25-28.15 9.1-26.98 9.95-25.8 11.55-24.6 13.15-23.4 15.35-21.85L15.35-21.85Q17.45-20.4 19.03-18.75 20.6-17.1 21.45-15.33 22.3-13.55 22.3-11.65L22.3-11.65Q22.3-8.05 20.75-5.43 19.2-2.8 16.32-1.4 13.45 0 9.5 0ZM31.7 0.25L31.7 0.25Q28.8 0.25 27.42-2.18 26.05-4.6 26.8-8.75L26.8-8.75Q27.5-12.45 29.37-15.15 31.25-17.85 34.1-19.33 36.95-20.8 40.5-20.8L40.5-20.8 43.6-20.8 43.15-18.05 40.7-18.05Q36.45-18.05 33.52-15.55 30.6-13.05 29.8-8.75L29.8-8.75Q29.3-5.85 30.02-4.17 30.75-2.5 32.2-2.5L32.2-2.5Q34.25-2.5 36.67-6.13 39.1-9.75 41.45-16.05L41.45-16.05 40.75-9.4Q39-4.55 36.52-2.15 34.05 0.25 31.7 0.25ZM40.15 0L40.15 0Q39.2 0 39-0.5 38.8-1 38.85-1.35L38.85-1.35 42.3-20.8 44.1-20.8Q44.8-20.8 44.95-20.2 45.1-19.6 44.95-18.75L44.95-18.75 41.9-1.35Q41.85-1.15 41.57-0.58 41.3 0 40.15 0ZM55.5 0.25L55.5 0.25Q53.15 0.25 51.55-0.93 49.95-2.1 49.32-4.15 48.7-6.2 49.15-8.8L49.15-8.8 54.1-37Q54.25-37.75 54.82-38.18 55.4-38.6 55.95-38.6L55.95-38.6Q56.55-38.6 56.92-38.23 57.3-37.85 57.15-37L57.15-37 52.15-8.8Q51.7-6.2 52.72-4.35 53.75-2.5 55.95-2.5L55.95-2.5Q57.75-2.5 59.25-3.83 60.75-5.15 61.65-7.38 62.55-9.6 62.55-12.35L62.55-12.35Q62.55-14.7 62.15-16.28 61.75-17.85 61.35-18.95L61.35-18.95Q61.25-19.3 61.25-19.8 61.25-20.3 61.6-20.65 61.95-21 62.84-20.8L62.84-20.8 69.65-19.7Q70.45-19.6 70.75-19.15 71.05-18.7 71.05-18.3L71.05-18.3Q71.05-17.35 70.3-17.07 69.55-16.8 68.55-17L68.55-17 62.7-18 64-19.2Q64.65-16.8 64.97-15.08 65.3-13.35 65.3-11.75L65.3-11.75Q65.3-8.3 63.97-5.6 62.65-2.9 60.42-1.33 58.2 0.25 55.5 0.25ZM72.94 0L72.94 0Q71.99 0 71.79-0.5 71.59-1 71.64-1.35L71.64-1.35 74.74-19.2Q74.89-19.75 75.12-20.1 75.34-20.45 75.74-20.63 76.14-20.8 76.74-20.8L76.74-20.8Q77.49-20.8 77.69-20.38 77.89-19.95 77.79-19.2L77.79-19.2 74.64-1.35Q74.59-1.15 74.34-0.58 74.09 0 72.94 0ZM77.74-26L77.74-26Q76.99-26 76.47-26.55 75.94-27.1 75.94-27.8L75.94-27.8Q75.94-28.5 76.44-29 76.94-29.5 77.74-29.5L77.74-29.5Q78.44-29.5 79.02-29.03 79.59-28.55 79.59-27.8L79.59-27.8Q79.59-27.1 79.04-26.55 78.49-26 77.74-26ZM82.54 0L82.54 0Q81.59 0 81.39-0.5 81.19-1 81.24-1.35L81.24-1.35 87.44-37Q87.59-37.85 88.07-38.23 88.54-38.6 89.44-38.6L89.44-38.6Q90.19-38.6 90.42-38.18 90.64-37.75 90.49-37L90.49-37 84.24-1.35Q84.19-1.15 83.94-0.58 83.69 0 82.54 0ZM95.89 0L95.89 0Q94.94 0 94.74-0.55 94.54-1.1 94.59-1.45L94.59-1.45 96.79-13.85Q96.99-14.85 96.84-15.88 96.69-16.9 96.04-17.6 95.39-18.3 94.04-18.3L94.04-18.3Q92.19-18.3 90.09-16.48 87.99-14.65 85.19-10.35L85.19-10.35 85.79-14.6Q87.84-17.85 89.82-19.45 91.79-21.05 94.24-21.05L94.24-21.05Q96.39-21.05 97.72-20 99.04-18.95 99.57-17.25 100.09-15.55 99.74-13.65L99.74-13.65 97.54-1.25Q97.49-1.05 97.27-0.53 97.04 0 95.89 0Z" opacity="1" transform="matrix(1,0,0,1,0,0)" fill="#fff" class="wordmark-text-0" data-fill-palette-color="primary" id="text-0"></path></svg></g></svg></g></svg></g></svg></g></svg></g></svg></g></svg></g><g><path d="M245.816 0c68.262 0 123.6 55.338 123.6 123.6 0 68.262-55.338 123.6-123.6 123.6-46.756 0-87.449-25.962-108.449-64.256h4.966c20.581 35.811 59.215 59.927 103.483 59.926 65.871 0 119.27-53.399 119.27-119.27 0-65.871-53.399-119.27-119.27-119.27-44.267 0-82.902 24.116-103.483 59.926l-4.966 0c21-38.294 61.692-64.256 108.449-64.256z" fill="#fff" stroke="transparent" data-fill-palette-color="tertiary"></path></g></svg></g><defs></defs></svg><rect width="395.52" height="247.2" fill="none" stroke="none" visibility="hidden"></rect></g></svg></g></svg>